<svg width="94" height="80" viewBox="0 0 94 80" fill="none" xmlns="http://www.w3.org/2000/svg">
<path d="M93.6572 61.2001C93.6572 71.2549 85.5063 79.4058 75.4515 79.4058L48.1429 79.4058C45.35 79.4058 43.0858 77.1417 43.0858 74.3487L43.0858 39.9601C43.0858 34.3741 47.6141 29.8458 53.2001 29.8458L88.6001 29.8458C91.3931 29.8458 93.6572 32.11 93.6572 34.903L93.6572 61.2001Z" fill="#FFF1DA"/>
<path d="M24.4015 51.7507L22.4918 50.8365L11.147 67.6107H23.808L25.028 66.8152V52.3249L24.4015 51.7507Z" fill="#407093"/>
<path d="M22.6647 50.9192L18.371 48.8636H17.5618L5.4209 66.8151L6.14369 67.6107H11.3758L22.6647 50.9192Z" fill="#365E7D"/>
<path d="M27.3075 66.815H10.5659C9.80532 66.815 9.18872 67.4315 9.18872 68.1921V69.9372C9.18872 70.6977 9.80518 71.3141 10.5656 71.3142H27.3075C28.0681 71.3142 28.6847 70.6978 28.6847 69.9372V68.1921C28.6847 67.4315 28.0681 66.815 27.3075 66.815Z" fill="#4A80AA"/>
<path d="M9.47367 69.9372V68.1921C9.47367 67.4316 10.0903 66.815 10.8508 66.815H1.98285C1.22231 66.815 0.605713 67.4315 0.605713 68.1921V69.9372C0.605713 70.6978 1.22231 71.3142 1.98285 71.3142H10.8507C10.0901 71.3142 9.47367 70.6978 9.47367 69.9372Z" fill="#407093"/>
<path d="M22.0883 40.954C21.573 42.0171 21.2817 43.2091 21.2817 44.4701C21.2817 47.9159 23.4395 50.8553 26.4764 52.0181C27.7802 51.6097 28.9388 50.8728 29.8539 49.9026V48.1418L22.0883 40.954Z" fill="#4A80AA"/>
<path d="M21.4177 44.4976C21.4177 43.2658 21.7025 42.1015 22.2068 41.0634L19.7245 38.7657H18.7173C17.1941 40.2026 16.2419 42.2383 16.2419 44.4975C16.2419 48.8497 19.77 52.3778 24.1223 52.3778C25.0289 52.3778 25.8982 52.2223 26.7086 51.9403C23.6288 50.8689 21.4177 47.9423 21.4177 44.4976Z" fill="#407093"/>
<path d="M67.1699 1.44958C65.9229 0.202559 63.9011 0.202559 62.6542 1.44958L59.6069 4.49687V4.88309L63.4104 8.84802L64.1226 9.01257L67.1698 5.96527C68.4169 4.7184 68.417 2.69659 67.1699 1.44958Z" fill="#FFD086"/>
<path d="M68.0123 2.95684C67.8793 2.40482 67.6008 1.8806 67.1699 1.44958C65.9229 0.202559 63.9011 0.202559 62.6542 1.44958L59.6069 4.49687V4.88309L61.6235 6.98524C62.8257 5.73421 64.0193 4.49964 64.6332 3.88581C65.6564 2.86267 67.151 2.85479 68.0123 2.95684Z" fill="#FFC365"/>
<path d="M56.7374 9.56698C56.7024 9.56698 56.667 9.56518 56.6315 9.56173L21.4172 6.09558C20.8299 6.03778 20.4008 5.51494 20.4586 4.92766C20.5164 4.34038 21.0395 3.91157 21.6265 3.96896L56.8408 7.43497C57.428 7.49277 57.8572 8.01561 57.7994 8.60289C57.7451 9.15477 57.2803 9.56698 56.7374 9.56698Z" fill="#365E7D"/>
<path d="M31.6021 16.1593C31.1282 16.1593 30.6953 15.8415 30.5694 15.3617C30.4197 14.7909 30.7611 14.2068 31.3318 14.057L56.4658 7.46446C57.0365 7.31498 57.6207 7.65612 57.7704 8.22694C57.9201 8.79763 57.5788 9.38173 57.008 9.53149L31.874 16.124C31.783 16.1478 31.6917 16.1593 31.6021 16.1593Z" fill="#407093"/>
<path d="M63.5636 48.1891C63.0203 48.1891 62.5555 47.7765 62.5015 47.2245L59.0569 11.9886C58.9995 11.4015 59.429 10.8788 60.0163 10.8212C60.6036 10.7665 61.1261 11.1935 61.1835 11.7808L64.6281 47.0167C64.6855 47.6038 64.256 48.1265 63.6687 48.184C63.6334 48.1873 63.5983 48.1891 63.5636 48.1891Z" fill="#365E7D"/>
<path d="M53.428 38.1876C53.3374 38.1876 53.2453 38.1759 53.1535 38.1517C52.5831 38.0004 52.2433 37.4155 52.3946 36.8451L59.0842 11.6139C59.2354 11.0434 59.8202 10.7042 60.3907 10.8549C60.9611 11.0062 61.3009 11.5911 61.1496 12.1615L54.46 37.3927C54.3332 37.8714 53.9008 38.1876 53.428 38.1876Z" fill="#407093"/>
<path d="M56.5447 7.55829L59.5997 4.50323L64.1148 9.01831L61.0597 12.0734L56.5447 7.55829Z" fill="#FFC365"/>
<path d="M58.865 9.86575C59.5992 9.09691 60.7458 7.89774 61.8549 6.74475L59.6071 4.49686L56.5515 7.55231L58.865 9.86575Z" fill="#FFA90F"/>
<path d="M61.7476 13.8165C61.4742 13.8165 61.2007 13.7121 60.9922 13.5035L55.1162 7.6277C54.6989 7.21037 54.6989 6.53403 55.1162 6.11656C55.5334 5.69951 56.2099 5.69951 56.6272 6.11656L62.5032 11.9924C62.9205 12.4097 62.9205 13.0861 62.5032 13.5035C62.2945 13.7122 62.0211 13.8165 61.7476 13.8165Z" fill="#4A80AA"/>
<path d="M62.4369 50.1125L26.6618 14.0272C21.9188 24.7348 21.0952 36.2294 24.646 46.1415C34.4523 54.9873 49.1011 56.3457 62.5868 50.7851L62.4369 50.1125Z" fill="#B5DCFF"/>
<path d="M26.8527 14.2192L18.6561 5.95157L17.8347 6.0326C12.0598 20.0381 13.746 35.2992 23.5332 45.0864C24.126 45.6792 24.7395 46.2418 25.371 46.7754C21.2452 36.875 21.9158 25.0999 26.8527 14.2192Z" fill="#8BCAFF"/>
<path d="M65.7064 47.5475L29.4229 11.2639C29.0659 11.319 28.7221 11.4813 28.4472 11.7562L26.869 13.3346C26.5301 13.6735 26.3615 14.1161 26.3567 14.5604L62.5252 50.7288C63.0629 51.2665 63.9348 51.2665 64.4726 50.7288L65.7066 49.4949C66.2442 48.9572 66.2442 48.0852 65.7064 47.5475Z" fill="#DBEDFF"/>
<path d="M26.9234 13.3617L28.4687 11.8164C28.7533 11.5318 29.1127 11.3689 29.4836 11.3248L21.0722 2.91346C20.5344 2.37569 19.6626 2.37569 19.1247 2.91346L17.8906 4.14748C17.3529 4.68526 17.3529 5.55712 17.8906 6.09489L26.4202 14.6245C26.409 14.1687 26.5756 13.7095 26.9234 13.3617Z" fill="#B5DCFF"/>
</svg>
