<svg width="78" height="68" viewBox="0 0 78 68" fill="none" xmlns="http://www.w3.org/2000/svg">
<path d="M27.4058 49.1887C27.4058 59.2434 35.5567 67.3943 45.6115 67.3943L72.9201 67.3943C75.713 67.3943 77.9772 65.1302 77.9772 62.3372L77.9772 27.9486C77.9772 22.3626 73.4489 17.8343 67.8629 17.8343L32.4629 17.8343C29.6699 17.8343 27.4058 20.0985 27.4058 22.8915L27.4058 49.1887Z" fill="#FFF1DA"/>
<path d="M50.6689 28.8066V23.0451C50.6689 21.9157 49.7533 21.0001 48.6239 21.0001H46.4203C45.5392 21.0001 44.7574 20.4356 44.4805 19.5992C44.1719 18.6674 43.7971 17.7659 43.3616 16.9002C42.9649 16.1117 43.1168 15.1584 43.7408 14.5343L45.2999 12.9752C46.0985 12.1766 46.0985 10.8817 45.2999 10.0831L41.2259 6.00908C40.4272 5.21042 39.1324 5.21042 38.3337 6.00908L36.7747 7.56815C36.1505 8.1923 35.1973 8.34402 34.4088 7.94738C33.5431 7.51188 32.6416 7.13702 31.7098 6.8285C30.8734 6.55153 30.3089 5.76976 30.3089 4.88868V2.68521C30.3089 1.55574 29.3933 0.640167 28.2638 0.640167H22.5023C21.3729 0.640167 20.4573 1.55574 20.4573 2.68521V4.88878C20.4573 5.76986 19.8928 6.55163 19.0564 6.8286C18.1246 7.13712 17.2231 7.51198 16.3574 7.94748C15.5689 8.34412 14.6156 8.1923 13.9915 7.56825L12.4324 6.00918C11.6338 5.21052 10.3389 5.21052 9.54028 6.00918L5.46648 10.0832C4.66782 10.8818 4.66782 12.1767 5.46648 12.9753L7.02555 14.5344C7.6496 15.1585 7.80142 16.1118 7.40478 16.9003C6.96928 17.766 6.59442 18.6675 6.2859 19.5993C6.09013 20.1904 5.64231 20.6456 5.08552 20.8618C4.85444 20.9516 4.70628 21.1019 4.44783 21.1019H2.24426C1.1148 21.1019 0.199219 22.0174 0.199219 23.1469V28.7049C0.199219 29.8343 1.1148 30.7499 2.24426 30.7499H4.44783C5.32891 30.7499 6.11068 31.4162 6.38766 32.2526C6.69617 33.1844 7.07103 34.0858 7.50654 34.9516C7.90317 35.7401 7.75136 36.6933 7.1273 37.3175L5.66999 38.8765C4.87133 39.6752 4.87133 40.97 5.66999 41.7687L9.54049 45.6392C10.3391 46.4378 11.634 46.4378 12.4326 45.6392L13.9917 44.0801C14.6157 43.456 15.5691 43.3042 16.3576 43.7009C17.2233 44.1364 18.3283 44.613 19.2601 44.9215C20.0965 45.1985 20.661 45.9803 20.661 46.8613V49.0649C20.661 50.1944 21.5766 51.1099 22.7061 51.1099H28.1623C29.2917 51.1099 30.2073 50.1944 30.2073 49.0649V46.8613C30.2073 46.6029 30.3576 46.4547 30.4473 46.2236C30.6636 45.6669 31.1189 45.219 31.7099 45.0233C32.6417 44.7147 33.5432 44.3399 34.4089 43.9044C35.1974 43.5078 36.1506 43.6596 36.7748 44.2836L38.3338 45.8427C39.1325 46.6413 40.4273 46.6413 41.226 45.8427L45.3 41.7687C46.0986 40.97 46.0986 39.6752 45.3 38.8765L43.7409 37.3175C43.1169 36.6933 42.965 35.7401 43.3617 34.9516C43.7972 34.0859 44.1721 33.1844 44.4806 32.2526C44.7575 31.4162 45.5393 30.8517 46.4204 30.8517H48.624C49.7533 30.8517 50.6689 29.9361 50.6689 28.8066Z" fill="#B6C4CF"/>
<path d="M30.4471 46.2236C30.3576 46.4546 30.3088 46.7049 30.3088 46.9634V49.1663C30.3088 50.2958 29.393 51.2116 28.2635 51.2116H22.5022C21.3728 51.2116 20.457 50.2958 20.457 49.1663V46.9634C20.457 46.0822 19.8923 45.2997 19.0559 45.0229C18.1248 44.7146 17.2233 44.3402 16.3574 43.9046C15.5688 43.5078 14.6153 43.6594 13.9916 44.2832L12.4327 45.842C11.634 46.6408 10.3386 46.6408 9.53988 45.842L5.46568 41.7688C4.66793 40.9701 4.66793 39.6748 5.46568 38.876L7.02556 37.3171C7.6493 36.6934 7.80092 35.74 7.40408 34.9514C6.96857 34.0854 6.59412 33.1839 6.28581 32.2529C6.00904 31.4165 5.22656 30.8517 4.34537 30.8517H2.14241C1.01295 30.8517 0.097168 29.9359 0.097168 28.8065V23.0452C0.097168 21.9157 1.01295 21 2.14241 21H4.34537C4.60383 21 4.85414 20.9511 5.08512 20.8616C5.08308 20.9888 5.08207 21.117 5.08207 21.2452C5.08207 35.0419 16.2668 46.2267 30.0635 46.2267C30.1917 46.2267 30.32 46.2256 30.4471 46.2236Z" fill="#9FACBA"/>
<path d="M25.3828 42.7151C34.6553 42.7151 42.1721 35.1982 42.1721 25.9258C42.1721 16.6533 34.6553 9.13644 25.3828 9.13644C16.1103 9.13644 8.59351 16.6533 8.59351 25.9258C8.59351 35.1982 16.1103 42.7151 25.3828 42.7151Z" fill="#9FACBA"/>
<path d="M25.383 39.1536C32.6886 39.1536 38.6109 33.2313 38.6109 25.9257C38.6109 18.6201 32.6886 12.6977 25.383 12.6977C18.0774 12.6977 12.155 18.6201 12.155 25.9257C12.155 33.2313 18.0774 39.1536 25.383 39.1536Z" fill="#F8F7F7"/>
</svg>
