<svg width="261" height="260" viewBox="0 0 261 260" fill="none" xmlns="http://www.w3.org/2000/svg">
<path d="M95.9167 130.846C95.9167 140.9 104.068 149.051 114.122 149.051L141.431 149.051C144.224 149.051 146.488 146.787 146.488 143.994L146.488 109.605C146.488 104.02 141.96 99.4912 136.374 99.4912L100.974 99.4912C98.1809 99.4912 95.9167 101.755 95.9167 104.548L95.9167 130.846Z" fill="#FFF1DA"/>
<path d="M145.238 144.927C143.856 145.387 142.499 146.086 141.252 146.979C138.005 149.259 136.049 152.171 136.884 153.484C137.719 154.797 141.028 154.012 144.274 151.732C145.537 150.863 146.67 149.813 147.604 148.648C148.038 148.087 148.139 147.445 147.861 147.009L146.777 145.304C146.501 144.867 145.897 144.72 145.238 144.927Z" fill="#D5D6DB"/>
<path d="M137.211 117.631C136.209 117.965 135.225 118.471 134.32 119.119C131.967 120.772 130.548 122.884 131.152 123.835C131.757 124.785 134.157 124.216 136.511 122.563C137.426 121.933 138.248 121.172 138.925 120.327C139.24 119.92 139.313 119.455 139.111 119.139L138.326 117.905C138.126 117.588 137.689 117.48 137.211 117.631Z" fill="#D5D6DB"/>
<path d="M124.268 120.189C124.048 120.194 123.81 120.28 123.6 120.428L118.065 124.326C117.602 124.651 117.4 125.189 117.613 125.528C117.662 125.606 117.731 125.669 117.816 125.713L130.767 132.564L149.223 119.565L124.268 120.189Z" fill="#029BC5"/>
<path d="M181.096 115.023L131.701 147.311L102.732 160.667L88.0687 164.958L86.5723 162.788L168.868 109.814C171.321 108.23 174.025 107.111 176.706 106.571C177.88 106.341 179.034 106.233 180.142 106.252C181.124 106.262 182.05 106.399 182.892 106.659C183.832 106.955 185.653 106.78 186.207 107.532C186.209 107.53 187.435 111.141 181.096 115.023Z" fill="#E1E6E9"/>
<path d="M133.061 145.73L110.778 178.386C110.498 178.841 110.633 179.294 111.08 179.398C111.354 179.462 111.696 179.381 111.99 179.182L117.463 175.473C118.516 174.76 119.457 173.903 120.23 172.955L162.784 124.919L133.061 145.73Z" fill="#029BC5"/>
<path d="M79.2953 144.269C78.9443 144.2 78.5183 144.314 78.152 144.576L73.5517 147.866C72.9249 148.314 72.6519 149.055 72.9417 149.521C72.9969 149.609 73.0703 149.684 73.1596 149.742L85.3393 157.663L98.8843 148.126L79.2953 144.269Z" fill="#029BC5"/>
<path d="M90.0218 160.312L83.0103 169.456C82.9076 169.588 82.9241 169.735 83.047 169.785C83.1356 169.82 83.2598 169.797 83.3631 169.724L87.5861 166.88C87.6189 166.858 87.6488 166.831 87.6739 166.802L97.8495 155.044L90.0218 160.312Z" fill="#029BC5"/>
<path d="M179.013 107.284C177.859 107.26 176.656 107.376 175.432 107.629C174.18 109.307 173.348 111.12 173.02 112.886C172.987 113.237 173.281 113.449 173.678 113.359C173.801 113.332 173.925 113.276 174.038 113.199L181.879 107.746C181.002 107.454 180.037 107.298 179.013 107.284Z" fill="#029BC5"/>
<path d="M162.193 117.111L167.444 113.275L171.896 120.571L166.644 124.407L162.193 117.111Z" fill="#D5D6DB"/>
<path d="M159.078 119.738C158.447 120.2 158.17 120.956 158.459 121.427L158.929 122.19C159.239 122.644 159.994 122.626 160.615 122.148C161.206 121.693 161.468 120.981 161.213 120.517L160.743 119.755C160.454 119.284 159.709 119.276 159.078 119.738Z" fill="#3A556A"/>
<path d="M154.562 122.542C153.931 123.004 153.654 123.76 153.944 124.231L154.413 124.994C154.724 125.448 155.479 125.43 156.1 124.952C156.691 124.497 156.952 123.785 156.697 123.321L156.228 122.559C155.938 122.088 155.193 122.081 154.562 122.542Z" fill="#3A556A"/>
<path d="M150.045 125.347C149.415 125.809 149.139 126.564 149.428 127.035L149.897 127.798C150.208 128.253 150.963 128.234 151.584 127.756C152.175 127.301 152.436 126.589 152.181 126.126L151.712 125.363C151.423 124.892 150.677 124.885 150.045 125.347Z" fill="#3A556A"/>
<path d="M145.53 128.151C144.9 128.613 144.624 129.369 144.913 129.839L145.382 130.602C145.693 131.057 146.448 131.038 147.069 130.561C147.66 130.106 147.921 129.393 147.666 128.93L147.197 128.167C146.907 127.696 146.161 127.689 145.53 128.151Z" fill="#3A556A"/>
<path d="M141.015 130.956C140.385 131.419 140.108 132.175 140.398 132.646L140.867 133.41C141.157 133.881 141.903 133.888 142.534 133.426C143.164 132.964 143.441 132.208 143.152 131.737L142.682 130.973C142.394 130.501 141.648 130.493 141.017 130.955C141.016 130.955 141.016 130.956 141.015 130.956Z" fill="#3A556A"/>
<path d="M136.5 133.76C135.869 134.223 135.593 134.979 135.882 135.45L136.352 136.214C136.641 136.685 137.387 136.692 138.018 136.23C138.649 135.768 138.926 135.012 138.636 134.541L138.167 133.777C137.878 133.306 137.133 133.298 136.501 133.759C136.501 133.76 136.5 133.76 136.5 133.76Z" fill="#3A556A"/>
<path d="M131.984 136.564C131.354 137.027 131.077 137.783 131.367 138.254L131.836 139.018C132.126 139.488 132.873 139.494 133.503 139.032C134.132 138.57 134.408 137.816 134.12 137.345L133.651 136.581C133.362 136.11 132.616 136.102 131.984 136.564Z" fill="#3A556A"/>
<path d="M127.469 139.368C126.838 139.831 126.562 140.588 126.851 141.059L127.321 141.822C127.611 142.293 128.357 142.299 128.988 141.836C129.617 141.374 129.893 140.62 129.605 140.149L129.136 139.386C128.846 138.914 128.1 138.907 127.469 139.368Z" fill="#3A556A"/>
<path d="M122.953 142.172C122.323 142.635 122.046 143.392 122.336 143.863L122.805 144.626C123.095 145.097 123.842 145.102 124.472 144.64C125.101 144.178 125.377 143.424 125.089 142.953L124.62 142.19C124.33 141.719 123.584 141.711 122.953 142.172Z" fill="#3A556A"/>
<path d="M118.436 144.978C117.806 145.44 117.529 146.196 117.818 146.667L117.819 146.668L118.288 147.431C118.578 147.902 119.325 147.908 119.955 147.445C120.584 146.984 120.861 146.229 120.573 145.758L120.103 144.995C119.814 144.523 119.068 144.516 118.436 144.978Z" fill="#3A556A"/>
<path d="M113.922 147.781C113.291 148.243 113.015 148.999 113.304 149.47L113.305 149.471L113.774 150.235C114.064 150.705 114.811 150.711 115.441 150.248C116.07 149.787 116.346 149.032 116.058 148.562L115.589 147.798C115.299 147.327 114.553 147.319 113.922 147.781Z" fill="#3A556A"/>
</svg>
